0
SECTION
2
HEADER
9
$ACADVER
1
AC1009
9
$DWGCODEPAGE
3
ANSI_1256
9
$INSUNITS
70
6
9
$EXTMIN
10
0.3237
20
-8.9823
30
0.0000
9
$EXTMAX
10
6.0304
20
1.0769
30
0.0000
0
ENDSEC
0
SECTION
2
TABLES
0
TABLE
2
VPORT
70
1
0
VPORT
2
*ACTIVE
70
0
10
0.0000
20
0.0000
11
1.0000
21
1.0000
12
3.1770
22
-3.9527
13
0.0000
23
0.0000
14
0.5000
24
0.5000
15
0.5000
25
0.5000
16
0.0000
26
0.0000
36
1.0000
17
0.0000
27
0.0000
37
0.0000
40
12.0709
41
1.8000
42
50.0000
43
0.0000
44
0.0000
50
0.0000
51
0.0000
71
0
72
100
73
1
74
3
75
0
76
0
77
0
78
0
0
ENDTAB
0
TABLE
2
LTYPE
70
1
0
LTYPE
2
CONTINUOUS
70
0
3
Solid line
72
65
73
0
40
0.0000
0
ENDTAB
0
TABLE
2
LAYER
70
8
0
LAYER
2
Walls
70
0
62
5
6
CONTINUOUS
0
LAYER
2
Doors
70
0
62
6
6
CONTINUOUS
0
LAYER
2
Windows
70
0
62
4
6
CONTINUOUS
0
LAYER
2
Rooms
70
0
62
-3
6
CONTINUOUS
0
LAYER
2
RoomNames
70
0
62
7
6
CONTINUOUS
0
LAYER
2
Dimensions
70
0
62
8
6
CONTINUOUS
0
LAYER
2
Notes
70
0
62
2
6
CONTINUOUS
0
LAYER
2
Damage
70
0
62
1
6
CONTINUOUS
0
ENDTAB
0
TABLE
2
STYLE
70
1
0
STYLE
2
STANDARD
70
0
40
0.0000
41
1.0000
50
0.0000
71
0
42
0.2000
3
arial.ttf
4

0
ENDTAB
0
ENDSEC
0
SECTION
2
BLOCKS
0
ENDSEC
0
SECTION
2
ENTITIES
0
POLYLINE
8
Rooms
66
1
70
1
10
0.0000
20
0.0000
30
0.0000
0
VERTEX
8
Rooms
10
1.6658
20
0.7095
30
0.0000
0
VERTEX
8
Rooms
10
5.1274
20
0.7095
30
0.0000
0
VERTEX
8
Rooms
10
5.1274
20
-2.4958
30
0.0000
0
VERTEX
8
Rooms
10
1.6658
20
-2.4958
30
0.0000
0
SEQEND
8
Rooms
0
TEXT
8
RoomNames
10
3.3966
20
-0.8932
30
0.0000
40
0.2500
1
ÛÑÝÉ äæã
7
STANDARD
0
POLYLINE
8
Walls
66
1
70
1
10
0.0000
20
0.0000
30
0.0000
0
VERTEX
8
Walls
10
4.6901
20
-8.9671
30
0.0000
0
VERTEX
8
Walls
10
5.9570
20
-2.8480
30
0.0000
0
VERTEX
8
Walls
10
6.1038
20
-2.8784
30
0.0000
0
VERTEX
8
Walls
10
4.8370
20
-8.9975
30
0.0000
0
SEQEND
8
Walls
0
TEXT
8
Dimensions
10
5.3970
20
-5.8227
30
0.0000
40
0.2000
1
6.25
7
STANDARD
0
POLYLINE
8
Walls
66
1
70
1
10
0.0000
20
0.0000
30
0.0000
0
VERTEX
8
Walls
10
3.4996
20
-8.1595
30
0.0000
0
VERTEX
8
Walls
10
0.3115
20
-7.6374
30
0.0000
0
VERTEX
8
Walls
10
0.3358
20
-7.4893
30
0.0000
0
VERTEX
8
Walls
10
3.5238
20
-8.0114
30
0.0000
0
SEQEND
8
Walls
0
TEXT
8
Dimensions
10
1.9177
20
-7.7244
30
0.0000
40
0.2000
1
3.29
7
STANDARD
0
POLYLINE
8
Walls
66
1
70
1
10
0.0000
20
0.0000
30
0.0000
0
VERTEX
8
Walls
10
0.3384
20
-7.4898
30
0.0000
0
VERTEX
8
Walls
10
1.9151
20
-7.8065
30
0.0000
0
VERTEX
8
Walls
10
1.8856
20
-7.9536
30
0.0000
0
VERTEX
8
Walls
10
0.3089
20
-7.6369
30
0.0000
0
SEQEND
8
Walls
0
TEXT
8
Dimensions
10
1.1120
20
-7.6217
30
0.0000
40
0.2000
1
1.61
7
STANDARD
0
POLYLINE
8
Walls
66
1
70
1
10
0.0000
20
0.0000
30
0.0000
0
VERTEX
8
Walls
10
1.9320
20
-7.8121
30
0.0000
0
VERTEX
8
Walls
10
3.4710
20
-8.5276
30
0.0000
0
VERTEX
8
Walls
10
3.4077
20
-8.6636
30
0.0000
0
VERTEX
8
Walls
10
1.8687
20
-7.9481
30
0.0000
0
SEQEND
8
Walls
0
TEXT
8
Dimensions
10
2.6699
20
-8.1378
30
0.0000
40
0.2000
1
1.70
7
STANDARD
0
POLYLINE
8
Walls
66
1
70
1
10
0.0000
20
0.0000
30
0.0000
0
VERTEX
8
Walls
10
3.3651
20
-8.5851
30
0.0000
0
VERTEX
8
Walls
10
3.9434
20
-4.5072
30
0.0000
0
VERTEX
8
Walls
10
4.0919
20
-4.5283
30
0.0000
0
VERTEX
8
Walls
10
3.5136
20
-8.6061
30
0.0000
0
SEQEND
8
Walls
0
TEXT
8
Dimensions
10
3.7285
20
-6.4567
30
0.0000
40
0.2000
1
4.12
7
STANDARD
0
POLYLINE
8
Walls
66
1
70
1
10
0.0000
20
0.0000
30
0.0000
0
VERTEX
8
Walls
10
5.0888
20
1.0557
30
0.0000
0
VERTEX
8
Walls
10
2.7655
20
-6.8498
30
0.0000
0
VERTEX
8
Walls
10
2.6216
20
-6.8075
30
0.0000
0
VERTEX
8
Walls
10
4.9449
20
1.0980
30
0.0000
0
SEQEND
8
Walls
0
TEXT
8
Dimensions
10
3.8552
20
-2.7759
30
0.0000
40
0.2000
1
8.15
7
STANDARD
0
POLYLINE
8
Walls
66
1
70
1
10
0.0000
20
0.0000
30
0.0000
0
VERTEX
8
Walls
10
2.0007
20
-1.3809
30
0.0000
0
VERTEX
8
Walls
10
2.0007
20
-7.4420
30
0.0000
0
VERTEX
8
Walls
10
1.8507
20
-7.4420
30
0.0000
0
VERTEX
8
Walls
10
1.8507
20
-1.3809
30
0.0000
0
SEQEND
8
Walls
0
POLYLINE
8
Walls
66
1
70
1
10
0.0000
20
0.0000
30
0.0000
0
VERTEX
8
Walls
10
2.1780
20
0.5194
30
0.0000
0
VERTEX
8
Walls
10
2.1780
20
-6.0609
30
0.0000
0
VERTEX
8
Walls
10
2.0280
20
-6.0609
30
0.0000
0
VERTEX
8
Walls
10
2.0280
20
0.5194
30
0.0000
0
SEQEND
8
Walls
0
POLYLINE
8
Walls
66
1
70
1
10
0.0000
20
0.0000
30
0.0000
0
VERTEX
8
Walls
10
3.8640
20
-5.9897
30
0.0000
0
VERTEX
8
Walls
10
0.6549
20
-8.5531
30
0.0000
0
VERTEX
8
Walls
10
0.5613
20
-8.4359
30
0.0000
0
VERTEX
8
Walls
10
3.7704
20
-5.8725
30
0.0000
0
SEQEND
8
Walls
0
TEXT
8
Dimensions
10
2.2127
20
-7.1128
30
0.0000
40
0.2000
1
4.07
7
STANDARD
0
LINE
8
Dimensions
10
0.3237
20
1.0769
30
0.0000
11
0.3237
21
1.7769
31
0.0000
0
LINE
8
Dimensions
10
1.9257
20
1.0769
30
0.0000
11
1.9257
21
1.7769
31
0.0000
0
LINE
8
Dimensions
10
2.1030
20
1.0769
30
0.0000
11
2.1030
21
1.7769
31
0.0000
0
LINE
8
Dimensions
10
6.0304
20
1.0769
30
0.0000
11
6.0304
21
1.7769
31
0.0000
0
LINE
8
Dimensions
10
0.3237
20
1.7769
30
0.0000
11
1.9257
21
1.7769
31
0.0000
0
LINE
8
Dimensions
10
0.2337
20
1.6869
30
0.0000
11
0.4137
21
1.8669
31
0.0000
0
LINE
8
Dimensions
10
1.8357
20
1.6869
30
0.0000
11
2.0157
21
1.8669
31
0.0000
0
TEXT
8
Dimensions
10
1.1247
20
1.9169
30
0.0000
40
0.2000
1
1.60
7
STANDARD
0
LINE
8
Dimensions
10
1.9257
20
1.7769
30
0.0000
11
2.1030
21
1.7769
31
0.0000
0
LINE
8
Dimensions
10
1.8357
20
1.6869
30
0.0000
11
2.0157
21
1.8669
31
0.0000
0
LINE
8
Dimensions
10
2.0130
20
1.6869
30
0.0000
11
2.1930
21
1.8669
31
0.0000
0
TEXT
8
Dimensions
10
2.0144
20
1.9169
30
0.0000
40
0.2000
1
0.18
7
STANDARD
0
LINE
8
Dimensions
10
2.1030
20
1.7769
30
0.0000
11
6.0304
21
1.7769
31
0.0000
0
LINE
8
Dimensions
10
2.0130
20
1.6869
30
0.0000
11
2.1930
21
1.8669
31
0.0000
0
LINE
8
Dimensions
10
5.9404
20
1.6869
30
0.0000
11
6.1204
21
1.8669
31
0.0000
0
TEXT
8
Dimensions
10
4.0667
20
1.9169
30
0.0000
40
0.2000
1
3.93
7
STANDARD
0
LINE
8
Dimensions
10
0.3237
20
-8.9823
30
0.0000
11
-0.3763
21
-8.9823
31
0.0000
0
LINE
8
Dimensions
10
0.3237
20
1.0769
30
0.0000
11
-0.3763
21
1.0769
31
0.0000
0
LINE
8
Dimensions
10
-0.3763
20
-8.9823
30
0.0000
11
-0.3763
21
1.0769
31
0.0000
0
LINE
8
Dimensions
10
-0.4663
20
-9.0723
30
0.0000
11
-0.2863
21
-8.8923
31
0.0000
0
LINE
8
Dimensions
10
-0.4663
20
0.9869
30
0.0000
11
-0.2863
21
1.1669
31
0.0000
0
TEXT
8
Dimensions
10
-0.5163
20
-3.9527
30
0.0000
40
0.2000
1
10.06
50
90.0000
7
STANDARD
0
ENDSEC
0
EOF
