0
SECTION
2
HEADER
9
$ACADVER
1
AC1009
9
$DWGCODEPAGE
3
ANSI_1256
9
$INSUNITS
70
6
9
$EXTMIN
10
0.8574
20
-4.7133
30
0.0000
9
$EXTMAX
10
3.8225
20
-1.0256
30
0.0000
0
ENDSEC
0
SECTION
2
TABLES
0
TABLE
2
VPORT
70
1
0
VPORT
2
*ACTIVE
70
0
10
0.0000
20
0.0000
11
1.0000
21
1.0000
12
2.3399
22
-2.8695
13
0.0000
23
0.0000
14
0.5000
24
0.5000
15
0.5000
25
0.5000
16
0.0000
26
0.0000
36
1.0000
17
0.0000
27
0.0000
37
0.0000
40
4.4252
41
1.8000
42
50.0000
43
0.0000
44
0.0000
50
0.0000
51
0.0000
71
0
72
100
73
1
74
3
75
0
76
0
77
0
78
0
0
ENDTAB
0
TABLE
2
LTYPE
70
1
0
LTYPE
2
CONTINUOUS
70
0
3
Solid line
72
65
73
0
40
0.0000
0
ENDTAB
0
TABLE
2
LAYER
70
8
0
LAYER
2
Walls
70
0
62
5
6
CONTINUOUS
0
LAYER
2
Doors
70
0
62
6
6
CONTINUOUS
0
LAYER
2
Windows
70
0
62
4
6
CONTINUOUS
0
LAYER
2
Rooms
70
0
62
-3
6
CONTINUOUS
0
LAYER
2
RoomNames
70
0
62
7
6
CONTINUOUS
0
LAYER
2
Dimensions
70
0
62
8
6
CONTINUOUS
0
LAYER
2
Notes
70
0
62
2
6
CONTINUOUS
0
LAYER
2
Damage
70
0
62
1
6
CONTINUOUS
0
ENDTAB
0
TABLE
2
STYLE
70
1
0
STYLE
2
STANDARD
70
0
40
0.0000
41
1.0000
50
0.0000
71
0
42
0.2000
3
arial.ttf
4

0
ENDTAB
0
ENDSEC
0
SECTION
2
BLOCKS
0
ENDSEC
0
SECTION
2
ENTITIES
0
POLYLINE
8
Walls
66
1
70
1
10
0.0000
20
0.0000
30
0.0000
0
VERTEX
8
Walls
10
0.8574
20
-0.9506
30
0.0000
0
VERTEX
8
Walls
10
3.8225
20
-0.9506
30
0.0000
0
VERTEX
8
Walls
10
3.8225
20
-1.1006
30
0.0000
0
VERTEX
8
Walls
10
0.8574
20
-1.1006
30
0.0000
0
SEQEND
8
Walls
0
POLYLINE
8
Walls
66
1
70
1
10
0.0000
20
0.0000
30
0.0000
0
VERTEX
8
Walls
10
3.8975
20
-1.0256
30
0.0000
0
VERTEX
8
Walls
10
3.8975
20
-4.7133
30
0.0000
0
VERTEX
8
Walls
10
3.7475
20
-4.7133
30
0.0000
0
VERTEX
8
Walls
10
3.7475
20
-1.0256
30
0.0000
0
SEQEND
8
Walls
0
POLYLINE
8
Walls
66
1
70
1
10
0.0000
20
0.0000
30
0.0000
0
VERTEX
8
Walls
10
3.8225
20
-4.7883
30
0.0000
0
VERTEX
8
Walls
10
0.8574
20
-4.7883
30
0.0000
0
VERTEX
8
Walls
10
0.8574
20
-4.6383
30
0.0000
0
VERTEX
8
Walls
10
3.8225
20
-4.6383
30
0.0000
0
SEQEND
8
Walls
0
POLYLINE
8
Walls
66
1
70
1
10
0.0000
20
0.0000
30
0.0000
0
VERTEX
8
Walls
10
0.7824
20
-4.7133
30
0.0000
0
VERTEX
8
Walls
10
0.7824
20
-1.0256
30
0.0000
0
VERTEX
8
Walls
10
0.9324
20
-1.0256
30
0.0000
0
VERTEX
8
Walls
10
0.9324
20
-4.7133
30
0.0000
0
SEQEND
8
Walls
0
LINE
8
Dimensions
10
0.8574
20
-1.0256
30
0.0000
11
0.8574
21
-0.3256
31
0.0000
0
LINE
8
Dimensions
10
3.8225
20
-1.0256
30
0.0000
11
3.8225
21
-0.3256
31
0.0000
0
LINE
8
Dimensions
10
0.8574
20
-0.3256
30
0.0000
11
3.8225
21
-0.3256
31
0.0000
0
LINE
8
Dimensions
10
0.7674
20
-0.4156
30
0.0000
11
0.9474
21
-0.2356
31
0.0000
0
LINE
8
Dimensions
10
3.7325
20
-0.4156
30
0.0000
11
3.9125
21
-0.2356
31
0.0000
0
TEXT
8
Dimensions
10
2.3399
20
-0.1856
30
0.0000
40
0.2000
1
2.97
7
STANDARD
0
LINE
8
Dimensions
10
0.8574
20
-4.7133
30
0.0000
11
0.1574
21
-4.7133
31
0.0000
0
LINE
8
Dimensions
10
0.8574
20
-1.0256
30
0.0000
11
0.1574
21
-1.0256
31
0.0000
0
LINE
8
Dimensions
10
0.1574
20
-4.7133
30
0.0000
11
0.1574
21
-1.0256
31
0.0000
0
LINE
8
Dimensions
10
0.0674
20
-4.8033
30
0.0000
11
0.2474
21
-4.6233
31
0.0000
0
LINE
8
Dimensions
10
0.0674
20
-1.1156
30
0.0000
11
0.2474
21
-0.9356
31
0.0000
0
TEXT
8
Dimensions
10
0.0174
20
-2.8695
30
0.0000
40
0.2000
1
3.69
50
90.0000
7
STANDARD
0
ENDSEC
0
EOF
